<?xml version="1.0" encoding="utf-8"?>
<!-- Generator: Adobe Illustrator 17.0.0, SVG Export Plug-In . SVG Version: 6.00 Build 0)  -->
<!DOCTYPE svg PUBLIC "-//W3C//DTD SVG 1.1//EN" "http://www.w3.org/Graphics/SVG/1.1/DTD/svg11.dtd">
<svg version="1.1" id="Layer_1" xmlns="http://www.w3.org/2000/svg" xmlns:xlink="http://www.w3.org/1999/xlink" x="0px" y="0px"
	 width="20px" height="17px" viewBox="0 0 20 17" enable-background="new 0 0 20 17" xml:space="preserve">
<g>
	<defs>
		<rect id="SVGID_1_" y="0.66" width="20" height="15.98"/>
	</defs>
	<clipPath id="SVGID_2_">
		<use xlink:href="#SVGID_1_"  overflow="visible"/>
	</clipPath>
	<g clip-path="url(#SVGID_2_)">
		<g>
			<defs>
				<rect id="SVGID_3_" x="0.012" y="0.66" width="19.976" height="15.98"/>
			</defs>
			<clipPath id="SVGID_4_">
				<use xlink:href="#SVGID_3_"  overflow="visible"/>
			</clipPath>
			<g clip-path="url(#SVGID_4_)">
				<path d="M6.826,0.924C7.011,0.754,7.253,0.66,7.503,0.66c0.251,0,0.493,0.094,0.677,0.265l6.492,5.993
					c0.101,0.094,0.182,0.207,0.237,0.333c0.055,0.126,0.084,0.262,0.084,0.4H10.5c-0.283,0-0.564,0.06-0.822,0.177
					c-0.258,0.117-0.489,0.287-0.676,0.5V7.151c0-0.132-0.053-0.259-0.147-0.353c-0.094-0.094-0.22-0.146-0.353-0.147H6.505
					c-0.132,0-0.259,0.053-0.353,0.147c-0.094,0.094-0.146,0.22-0.147,0.353v1.998c0,0.132,0.053,0.259,0.147,0.353
					c0.094,0.094,0.22,0.146,0.353,0.147h1.998v3.995H3.508c-0.397,0-0.778-0.158-1.059-0.439c-0.281-0.281-0.439-0.662-0.439-1.059
					V8.65H1.011c-0.201,0-0.397-0.06-0.563-0.174S0.154,8.202,0.081,8.015C0.008,7.828-0.007,7.623,0.038,7.427
					c0.045-0.196,0.148-0.373,0.296-0.51L6.826,0.924z M10.999,10.148v4.495h5.993v-4.495H10.999z M9.501,9.648
					c0-0.131,0.026-0.261,0.076-0.382c0.05-0.121,0.124-0.231,0.216-0.324c0.093-0.093,0.203-0.166,0.324-0.216
					c0.121-0.05,0.251-0.076,0.382-0.076h6.992c0.131,0,0.261,0.026,0.382,0.076c0.121,0.05,0.231,0.124,0.324,0.216
					c0.093,0.093,0.166,0.203,0.216,0.324c0.05,0.121,0.076,0.251,0.076,0.382v4.994h0.999c0.132,0,0.259,0.053,0.353,0.147
					c0.094,0.094,0.146,0.22,0.147,0.353c0,0.397-0.158,0.778-0.439,1.059c-0.281,0.281-0.662,0.439-1.059,0.439H9.501
					c-0.397,0-0.778-0.158-1.059-0.439c-0.281-0.281-0.439-0.662-0.439-1.059c0-0.132,0.053-0.259,0.147-0.353
					c0.094-0.094,0.22-0.146,0.353-0.147h0.999V9.648z"/>
			</g>
		</g>
	</g>
</g>
</svg>
