<?xml version="1.0" encoding="utf-8"?>
<!-- Generator: Adobe Illustrator 17.0.0, SVG Export Plug-In . SVG Version: 6.00 Build 0)  -->
<!DOCTYPE svg PUBLIC "-//W3C//DTD SVG 1.1//EN" "http://www.w3.org/Graphics/SVG/1.1/DTD/svg11.dtd">
<svg version="1.1" id="Layer_1" xmlns="http://www.w3.org/2000/svg" xmlns:xlink="http://www.w3.org/1999/xlink" x="0px" y="0px"
	 width="29px" height="21px" viewBox="0 0 29 21" enable-background="new 0 0 29 21" xml:space="preserve">
<g>
	<defs>
		<rect id="SVGID_1_" x="0.11" y="0.37" width="28" height="20"/>
	</defs>
	<clipPath id="SVGID_2_">
		<use xlink:href="#SVGID_1_"  overflow="visible"/>
	</clipPath>
	<g clip-path="url(#SVGID_2_)">
		<g>
			<defs>
				<rect id="SVGID_3_" x="0.11" y="0.37" width="28" height="20"/>
			</defs>
			<clipPath id="SVGID_4_">
				<use xlink:href="#SVGID_3_"  overflow="visible"/>
			</clipPath>
			<g clip-path="url(#SVGID_4_)">
				<g>
					<defs>
						<rect id="SVGID_5_" x="3.396" y="0.37" width="21.429" height="20"/>
					</defs>
					<clipPath id="SVGID_6_">
						<use xlink:href="#SVGID_5_"  overflow="visible"/>
					</clipPath>
					<g clip-path="url(#SVGID_6_)">
						<path d="M5.409,8.942c-0.171,0-0.34-0.033-0.497-0.098S4.61,8.682,4.49,8.562C4.369,8.441,4.273,8.298,4.208,8.14
							S4.11,7.813,4.11,7.642c0-0.084,0.009-0.168,0.027-0.25C4.373,6.455,6.199,0.37,14.11,0.37c7.911,0,9.737,6.085,9.973,7.022
							c0.02,0.082,0.029,0.166,0.027,0.25c0,0.171-0.033,0.34-0.099,0.497c-0.065,0.158-0.161,0.301-0.281,0.422
							c-0.121,0.121-0.264,0.216-0.422,0.282s-0.327,0.099-0.497,0.098H5.409z M9.11,4.656c0-0.141-0.042-0.279-0.12-0.397
							C8.911,4.142,8.799,4.05,8.669,3.996C8.538,3.942,8.395,3.928,8.256,3.955C8.118,3.983,7.99,4.051,7.89,4.151
							c-0.1,0.1-0.168,0.227-0.195,0.366C7.667,4.655,7.682,4.799,7.736,4.929C7.79,5.06,7.881,5.171,7.999,5.25
							c0.117,0.078,0.256,0.12,0.397,0.12C8.585,5.37,8.766,5.294,8.9,5.16C9.034,5.026,9.109,4.845,9.11,4.656z M19.824,5.37
							c0.141,0,0.279-0.042,0.397-0.12c0.118-0.078,0.209-0.19,0.263-0.321c0.054-0.131,0.068-0.274,0.041-0.413
							c-0.027-0.139-0.095-0.266-0.195-0.366c-0.1-0.1-0.227-0.168-0.366-0.195c-0.139-0.028-0.282-0.013-0.413,0.041
							c-0.13,0.054-0.242,0.146-0.32,0.263c-0.079,0.117-0.12,0.256-0.12,0.397c0,0.189,0.076,0.371,0.21,0.504
							C19.453,5.294,19.635,5.37,19.824,5.37z M14.824,3.227c0-0.141-0.042-0.279-0.12-0.397c-0.078-0.117-0.19-0.209-0.321-0.263
							c-0.13-0.054-0.274-0.068-0.413-0.041c-0.139,0.028-0.266,0.096-0.366,0.195c-0.1,0.1-0.168,0.227-0.196,0.366
							c-0.028,0.139-0.013,0.282,0.041,0.413c0.054,0.131,0.146,0.242,0.263,0.321c0.117,0.078,0.255,0.12,0.397,0.12
							c0.189-0.001,0.371-0.076,0.504-0.21C14.748,3.598,14.823,3.417,14.824,3.227z M3.396,12.513c0-0.568,0.226-1.113,0.628-1.515
							c0.402-0.402,0.947-0.628,1.515-0.628h17.143c0.568,0,1.113,0.226,1.515,0.628c0.402,0.402,0.628,0.947,0.628,1.515
							c0,0.568-0.226,1.113-0.628,1.515c-0.402,0.402-0.947,0.628-1.515,0.628H5.538c-0.568,0-1.113-0.226-1.515-0.628
							C3.621,13.626,3.396,13.081,3.396,12.513z M4.11,16.799c0.001-0.189,0.076-0.371,0.21-0.504
							c0.134-0.134,0.315-0.209,0.504-0.21h18.571c0.189,0.001,0.371,0.076,0.504,0.21c0.134,0.134,0.209,0.315,0.21,0.504v0.714
							c-0.001,0.757-0.302,1.484-0.838,2.019s-1.262,0.837-2.019,0.838H6.967c-0.758-0.001-1.484-0.302-2.02-0.838
							S4.11,18.271,4.11,17.513V16.799z"/>
					</g>
				</g>
			</g>
		</g>
	</g>
</g>
</svg>
