<?xml version="1.0" encoding="utf-8"?>
<!-- Generator: Adobe Illustrator 17.0.0, SVG Export Plug-In . SVG Version: 6.00 Build 0)  -->
<!DOCTYPE svg PUBLIC "-//W3C//DTD SVG 1.1//EN" "http://www.w3.org/Graphics/SVG/1.1/DTD/svg11.dtd">
<svg version="1.1" id="Layer_1" xmlns="http://www.w3.org/2000/svg" xmlns:xlink="http://www.w3.org/1999/xlink" x="0px" y="0px"
	 width="29px" height="21px" viewBox="0 0 29 21" enable-background="new 0 0 29 21" xml:space="preserve">
<g>
	<defs>
		<rect id="SVGID_1_" x="0.11" y="0.25" width="28" height="20"/>
	</defs>
	<clipPath id="SVGID_2_">
		<use xlink:href="#SVGID_1_"  overflow="visible"/>
	</clipPath>
	<g clip-path="url(#SVGID_2_)">
		<g>
			<defs>
				<rect id="SVGID_3_" x="5.36" y="0.25" width="17.5" height="20"/>
			</defs>
			<clipPath id="SVGID_4_">
				<use xlink:href="#SVGID_3_"  overflow="visible"/>
			</clipPath>
			<g clip-path="url(#SVGID_4_)">
				<path d="M10.36,0.25c0.164,0,0.327,0.032,0.478,0.095c0.152,0.063,0.29,0.155,0.406,0.271c0.116,0.116,0.208,0.254,0.271,0.406
					C11.578,1.173,11.61,1.336,11.61,1.5v1.25h5V1.5c0-0.332,0.132-0.649,0.366-0.884C17.21,0.382,17.528,0.25,17.86,0.25
					c0.332,0,0.649,0.132,0.884,0.366C18.978,0.851,19.11,1.168,19.11,1.5v1.25h1.875c0.497,0,0.974,0.198,1.326,0.549
					c0.352,0.352,0.549,0.828,0.549,1.326V6.5H5.36V4.625c0-0.497,0.198-0.974,0.549-1.326C6.261,2.948,6.738,2.75,7.235,2.75H9.11
					V1.5c0-0.164,0.032-0.327,0.095-0.479c0.063-0.152,0.155-0.29,0.271-0.406S9.73,0.408,9.881,0.345
					C10.033,0.282,10.196,0.25,10.36,0.25z M5.36,7.75h17.5v10.625c0,0.497-0.198,0.974-0.549,1.326
					c-0.352,0.352-0.829,0.549-1.326,0.549H7.235c-0.497,0-0.974-0.198-1.326-0.549c-0.352-0.352-0.549-0.829-0.549-1.326V7.75z
					 M7.86,10.875v1.25c0,0.166,0.066,0.324,0.184,0.441c0.117,0.117,0.276,0.183,0.441,0.184h1.25c0.166,0,0.324-0.066,0.441-0.184
					c0.117-0.117,0.183-0.276,0.184-0.441v-1.25c-0.001-0.166-0.067-0.324-0.184-0.441C10.059,10.316,9.9,10.25,9.735,10.25h-1.25
					c-0.166,0-0.324,0.066-0.441,0.184C7.926,10.551,7.86,10.709,7.86,10.875z M12.86,10.875v1.25c0,0.166,0.066,0.324,0.184,0.441
					c0.117,0.117,0.276,0.183,0.441,0.184h1.25c0.166,0,0.324-0.066,0.441-0.184c0.117-0.117,0.183-0.276,0.184-0.441v-1.25
					c-0.001-0.166-0.067-0.324-0.184-0.441c-0.117-0.117-0.276-0.183-0.441-0.184h-1.25c-0.166,0-0.324,0.066-0.441,0.184
					C12.926,10.551,12.86,10.709,12.86,10.875z M18.485,10.25c-0.166,0-0.324,0.066-0.441,0.184
					c-0.117,0.117-0.183,0.276-0.184,0.441v1.25c0,0.166,0.066,0.324,0.184,0.441c0.117,0.117,0.276,0.183,0.441,0.184h1.25
					c0.166,0,0.324-0.066,0.441-0.184c0.117-0.117,0.183-0.276,0.184-0.441v-1.25c0-0.166-0.066-0.324-0.184-0.441
					c-0.117-0.117-0.276-0.183-0.441-0.184H18.485z M7.86,15.875v1.25c0,0.166,0.066,0.324,0.184,0.441
					c0.117,0.117,0.276,0.183,0.441,0.184h1.25c0.166,0,0.324-0.066,0.441-0.184s0.183-0.276,0.184-0.441v-1.25
					c-0.001-0.166-0.067-0.324-0.184-0.441C10.059,15.316,9.9,15.25,9.735,15.25h-1.25c-0.166,0-0.324,0.066-0.441,0.184
					C7.926,15.551,7.86,15.709,7.86,15.875z M13.485,15.25c-0.166,0-0.324,0.066-0.441,0.184c-0.117,0.117-0.183,0.276-0.184,0.441
					v1.25c0,0.166,0.066,0.324,0.184,0.441s0.276,0.183,0.441,0.184h1.25c0.166,0,0.324-0.066,0.441-0.184s0.183-0.276,0.184-0.441
					v-1.25c-0.001-0.166-0.067-0.324-0.184-0.441c-0.117-0.117-0.276-0.183-0.441-0.184H13.485z M17.86,15.875v1.25
					c0,0.166,0.066,0.324,0.184,0.441c0.117,0.117,0.276,0.183,0.441,0.184h1.25c0.166,0,0.324-0.066,0.441-0.184
					s0.183-0.276,0.184-0.441v-1.25c0-0.166-0.066-0.324-0.184-0.441c-0.117-0.117-0.276-0.183-0.441-0.184h-1.25
					c-0.166,0-0.324,0.066-0.441,0.184C17.926,15.551,17.86,15.709,17.86,15.875z"/>
			</g>
		</g>
	</g>
</g>
</svg>
