<svg width="25" height="26" viewBox="0 0 25 26" fill="none" xmlns="http://www.w3.org/2000/svg">
<path d="M3.93017 10.6785C4.08254 10.7494 4.22855 10.8333 4.3666 10.9292C4.57657 11.0708 4.76701 11.2394 4.93302 11.4306C5.58604 12.2441 5.98921 13.2295 6.09373 14.2674C8.09479 13.8048 10.1406 13.5635 12.1944 13.5478C14.2482 13.5635 16.294 13.8048 18.2951 14.2674C18.3996 13.2295 18.8028 12.2441 19.4558 11.4306C19.6218 11.2394 19.8122 11.0708 20.0222 10.9292C20.1612 10.8323 20.3089 10.7484 20.4633 10.6785L21.1318 3.8164C21.1807 3.29025 21.0535 2.76277 20.7704 2.31663C20.4872 1.87048 20.0641 1.53089 19.5672 1.35106C17.2039 0.486177 14.7108 0.0293156 12.1944 0C9.67937 0.0278411 7.18753 0.484756 4.82624 1.35106C4.32806 1.52896 3.90357 1.86813 3.62011 2.31476C3.33666 2.76139 3.21048 3.28989 3.26161 3.8164L3.93017 10.6785ZM15.2355 5.44139C15.499 5.44139 15.7566 5.51954 15.9757 5.66596C16.1949 5.81237 16.3657 6.02048 16.4665 6.26396C16.5674 6.50744 16.5938 6.77536 16.5423 7.03384C16.4909 7.29232 16.364 7.52974 16.1777 7.7161C15.9913 7.90245 15.7539 8.02936 15.4954 8.08077C15.2369 8.13219 14.969 8.1058 14.7255 8.00495C14.4821 7.90409 14.2739 7.7333 14.1275 7.51418C13.9811 7.29505 13.903 7.03743 13.903 6.77388C13.903 6.42049 14.0434 6.08157 14.2933 5.83168C14.5431 5.58179 14.8821 5.4414 15.2355 5.44139ZM12.1944 2.40034C12.4579 2.40034 12.7156 2.47849 12.9347 2.62491C13.1538 2.77132 13.3246 2.97943 13.4255 3.22291C13.5263 3.46639 13.5527 3.73431 13.5013 3.99279C13.4499 4.25127 13.323 4.48869 13.1366 4.67505C12.9503 4.8614 12.7128 4.98831 12.4544 5.03972C12.1959 5.09113 11.928 5.06475 11.6845 4.96389C11.441 4.86304 11.2329 4.69225 11.0865 4.47312C10.9401 4.254 10.8619 3.99637 10.8619 3.73283C10.8619 3.37944 11.0023 3.04052 11.2522 2.79063C11.5021 2.54074 11.841 2.40035 12.1944 2.40034ZM12.1944 8.48244C12.4579 8.48244 12.7156 8.56059 12.9347 8.70701C13.1538 8.85343 13.3246 9.06153 13.4255 9.30501C13.5263 9.54849 13.5527 9.81641 13.5013 10.0749C13.4499 10.3334 13.323 10.5708 13.1366 10.7571C12.9503 10.9435 12.7128 11.0704 12.4544 11.1218C12.1959 11.1732 11.928 11.1468 11.6845 11.046C11.441 10.9451 11.2329 10.7744 11.0865 10.5552C10.9401 10.3361 10.8619 10.0785 10.8619 9.81493C10.8627 9.46178 11.0033 9.12332 11.2531 8.8736C11.5028 8.62388 11.8412 8.48324 12.1944 8.48244ZM9.15335 5.44139C9.41689 5.44139 9.67452 5.51954 9.89364 5.66596C10.1128 5.81237 10.2836 6.02048 10.3844 6.26396C10.4853 6.50744 10.5117 6.77536 10.4602 7.03384C10.4088 7.29232 10.2819 7.52974 10.0956 7.7161C9.90921 7.90245 9.67179 8.02936 9.41331 8.08077C9.15483 8.13219 8.88691 8.1058 8.64343 8.00495C8.39995 7.90409 8.19184 7.7333 8.04543 7.51418C7.89901 7.29505 7.82086 7.03743 7.82086 6.77388C7.82166 6.42073 7.96231 6.08227 8.21202 5.83255C8.46174 5.58284 8.8002 5.44219 9.15335 5.44139Z" fill="#0A65DB"/>
<path d="M3.75363 21.9792C3.85973 22.0627 3.97279 22.137 4.09155 22.2013L3.13964 25.4031C3.12225 25.4616 3.11655 25.5229 3.12285 25.5835C3.12915 25.6442 3.14733 25.703 3.17636 25.7566C3.20539 25.8102 3.2447 25.8576 3.29203 25.896C3.33937 25.9344 3.39382 25.9632 3.45226 25.9806C3.5107 25.9979 3.57199 26.0036 3.63263 25.9973C3.69328 25.991 3.75209 25.9729 3.80571 25.9438C3.85933 25.9148 3.9067 25.8755 3.94513 25.8282C3.98355 25.7808 4.01228 25.7264 4.02967 25.6679L4.97742 22.4802L4.97933 22.4806C5.06692 22.4937 5.15541 22.4999 5.24398 22.4991H19.1446C19.2332 22.4999 19.3216 22.4937 19.4092 22.4806L19.4111 22.4802L20.3587 25.6679C20.3938 25.786 20.4744 25.8853 20.5827 25.944C20.691 26.0027 20.8182 26.0159 20.9363 25.9808C21.0544 25.9457 21.1537 25.8651 21.2124 25.7568C21.2711 25.6484 21.2843 25.5212 21.2492 25.4032L20.2974 22.2011C20.416 22.1369 20.5289 22.0626 20.6349 21.9792C23.676 19.6067 24.7763 15.9017 24.2703 13.6174C24.1644 13.0784 23.9231 12.5751 23.5692 12.1549C23.2448 11.7804 22.8086 11.52 22.3249 11.4121C22.0256 11.3287 21.7118 11.3109 21.4049 11.3597C21.0981 11.4086 20.8054 11.5231 20.5467 11.6953C19.8457 12.1781 19.3907 13.1253 19.2003 14.5042C19.1849 14.6236 19.1437 14.7381 19.0796 14.8399C19.0154 14.9418 18.9299 15.0284 18.8289 15.0938C18.7373 15.1574 18.6327 15.1999 18.5228 15.2184C18.4128 15.2368 18.3002 15.2308 18.1928 15.2006C16.2271 14.7333 14.2147 14.4904 12.1943 14.4763C10.1738 14.4904 8.16148 14.7333 6.19575 15.2006C6.08843 15.231 5.97572 15.2371 5.86573 15.2186C5.75574 15.2002 5.65122 15.1576 5.55969 15.0938C5.45869 15.0284 5.37316 14.9418 5.30902 14.8399C5.24488 14.7381 5.20367 14.6236 5.18826 14.5042C4.9979 13.1253 4.54291 12.1781 3.84184 11.6953C3.58321 11.5231 3.29049 11.4086 2.98363 11.3597C2.67677 11.3109 2.36298 11.3287 2.06364 11.4121C1.07472 11.6396 0.382935 12.4242 0.118294 13.6174C-0.387774 15.9017 0.712576 19.6067 3.75363 21.9792Z" fill="#0A65DB"/>
<path d="M9.15295 7.17803C9.23284 7.17803 9.31093 7.15434 9.37736 7.10996C9.44378 7.06557 9.49556 7.00249 9.52613 6.92868C9.5567 6.85487 9.5647 6.77366 9.54911 6.6953C9.53353 6.61695 9.49506 6.54498 9.43857 6.48849C9.38208 6.432 9.31011 6.39353 9.23175 6.37794C9.1534 6.36235 9.07218 6.37035 8.99837 6.40093C8.92457 6.4315 8.86148 6.48327 8.8171 6.54969C8.77271 6.61612 8.74902 6.69422 8.74902 6.7741C8.7491 6.88121 8.79168 6.9839 8.86742 7.05964C8.94315 7.13537 9.04585 7.17795 9.15295 7.17803Z" fill="#0A65DB"/>
<path d="M12.194 10.219C12.417 10.219 12.5979 10.0381 12.5979 9.81503C12.5979 9.59195 12.417 9.4111 12.194 9.4111C11.9709 9.4111 11.79 9.59195 11.79 9.81503C11.79 10.0381 11.9709 10.219 12.194 10.219Z" fill="#0A65DB"/>
<path d="M12.194 4.13689C12.417 4.13689 12.5979 3.95605 12.5979 3.73297C12.5979 3.50988 12.417 3.32904 12.194 3.32904C11.9709 3.32904 11.79 3.50988 11.79 3.73297C11.79 3.95605 11.9709 4.13689 12.194 4.13689Z" fill="#0A65DB"/>
<path d="M15.2355 7.17803C15.3154 7.17803 15.3935 7.15434 15.4599 7.10996C15.5263 7.06557 15.5781 7.00249 15.6086 6.92868C15.6392 6.85487 15.6472 6.77366 15.6316 6.6953C15.616 6.61695 15.5776 6.54498 15.5211 6.48849C15.4646 6.432 15.3926 6.39353 15.3143 6.37794C15.2359 6.36235 15.1547 6.37035 15.0809 6.40093C15.0071 6.4315 14.944 6.48327 14.8996 6.54969C14.8552 6.61612 14.8315 6.69422 14.8315 6.7741C14.8316 6.88121 14.8742 6.98391 14.9499 7.05964C15.0257 7.13538 15.1284 7.17796 15.2355 7.17803Z" fill="#0A65DB"/>
</svg>
