<svg width="29" height="21" viewBox="0 0 29 21" fill="none" xmlns="http://www.w3.org/2000/svg">
<g clip-path="url(#clip0_324_708)">
<g clip-path="url(#clip1_324_708)">
<path d="M7.65723 0.500003C7.53403 0.499704 7.41199 0.523749 7.29811 0.570757C7.18423 0.617765 7.08076 0.686809 6.99365 0.773924C6.90653 0.861038 6.83749 0.964506 6.79048 1.07838C6.74347 1.19226 6.71943 1.3143 6.71973 1.4375C6.71973 2.95703 7.63379 3.75782 8.24707 4.29297L8.29004 4.33203C8.92676 4.88672 9.21973 5.1836 9.21973 5.8125C9.21973 6.06114 9.3185 6.2996 9.49431 6.47542C9.67013 6.65123 9.90859 6.75 10.1572 6.75C10.4059 6.75 10.6443 6.65123 10.8201 6.47542C10.996 6.2996 11.0947 6.06114 11.0947 5.8125C11.0947 4.29297 10.1807 3.49219 9.56738 2.95703L9.52442 2.91797C8.8877 2.36328 8.59473 2.06641 8.59473 1.4375C8.59503 1.3143 8.57098 1.19226 8.52397 1.07838C8.47696 0.964506 8.40792 0.861038 8.32081 0.773924C8.23369 0.686809 8.13022 0.617765 8.01635 0.570757C7.90247 0.523749 7.78043 0.499704 7.65723 0.500003ZM5.46973 8C5.30553 7.99983 5.1429 8.03204 4.99117 8.0948C4.83943 8.15755 4.70156 8.24962 4.58545 8.36573C4.46935 8.48184 4.37728 8.61971 4.31452 8.77144C4.25177 8.92318 4.21955 9.0858 4.21973 9.25V16.75C4.21999 17.7445 4.61516 18.6982 5.31836 19.4014C6.02157 20.1046 6.97524 20.4997 7.96973 20.5H15.4697C16.4642 20.4997 17.4179 20.1046 18.1211 19.4014C18.8243 18.6982 19.2195 17.7445 19.2197 16.75H19.8447C21.0051 16.75 22.1178 16.2891 22.9383 15.4686C23.7588 14.6481 24.2197 13.5353 24.2197 12.375C24.2197 11.2147 23.7588 10.1019 22.9383 9.28141C22.1178 8.46094 21.0051 8 19.8447 8H5.46973ZM19.2197 10.5H19.8447C20.342 10.5 20.8189 10.6975 21.1706 11.0492C21.5222 11.4008 21.7197 11.8777 21.7197 12.375C21.7197 12.8723 21.5222 13.3492 21.1706 13.7008C20.8189 14.0525 20.342 14.25 19.8447 14.25H19.2197V10.5ZM12.9697 1.4375C12.9697 1.18886 12.871 0.950406 12.6951 0.77459C12.5193 0.598775 12.2809 0.500003 12.0322 0.500003C11.7836 0.500003 11.5451 0.598775 11.3693 0.77459C11.1935 0.950406 11.0947 1.18886 11.0947 1.4375C11.0947 2.95703 12.0088 3.75782 12.6221 4.29297L12.665 4.33203C13.3018 4.88672 13.5947 5.1836 13.5947 5.8125C13.5947 6.06114 13.6935 6.2996 13.8693 6.47542C14.0451 6.65123 14.2836 6.75 14.5322 6.75C14.7809 6.75 15.0193 6.65123 15.1951 6.47542C15.371 6.2996 15.4697 6.06114 15.4697 5.8125C15.4697 4.29297 14.5557 3.49219 13.9424 2.95703L13.8994 2.91797C13.2627 2.36328 12.9697 2.06641 12.9697 1.4375Z" fill="#0A65DB"/>
</g>
</g>
<defs>
<clipPath id="clip0_324_708">
<rect width="28" height="20" fill="white" transform="translate(0.219727 0.5)"/>
</clipPath>
<clipPath id="clip1_324_708">
<rect width="20" height="20" fill="white" transform="translate(4.21973 0.5)"/>
</clipPath>
</defs>
</svg>
