<svg width="16" height="15" viewBox="0 0 16 15" fill="none" xmlns="http://www.w3.org/2000/svg">
<g clip-path="url(#clip0_324_969)">
<g clip-path="url(#clip1_324_969)">
<g clip-path="url(#clip2_324_969)">
<path d="M1.77896 0.0899658C1.30768 0.0903997 0.855814 0.277811 0.522562 0.611063C0.18931 0.944315 0.00189871 1.39618 0.00146484 1.86747L0.00146484 9.86622C0.00189871 10.3375 0.18931 10.7894 0.522562 11.1226C0.855814 11.4559 1.30768 11.6433 1.77896 11.6437H6.66709L6.36991 12.5325H4.44521C4.2095 12.5325 3.98345 12.6261 3.81677 12.7928C3.6501 12.9594 3.55646 13.1855 3.55646 13.4212C3.55646 13.6569 3.6501 13.883 3.81677 14.0497C3.98345 14.2163 4.2095 14.31 4.44521 14.31H11.5552C11.7909 14.31 12.017 14.2163 12.1837 14.0497C12.3503 13.883 12.444 13.6569 12.444 13.4212C12.444 13.1855 12.3503 12.9594 12.1837 12.7928C12.017 12.6261 11.7909 12.5325 11.5552 12.5325H9.63052L9.33334 11.6437H14.2215C14.6928 11.6433 15.1446 11.4559 15.4779 11.1226C15.8111 10.7894 15.9985 10.3375 15.999 9.86622V1.86747C15.9985 1.39618 15.8111 0.944315 15.4779 0.611063C15.1446 0.277811 14.6928 0.0903997 14.2215 0.0899658L1.77896 0.0899658ZM14.2215 1.86747V9.86622H1.77896V1.86747H14.2215Z" fill="black"/>
</g>
</g>
</g>
<defs>
<clipPath id="clip0_324_969">
<rect width="16" height="14.22" fill="white" transform="translate(0 0.0899658)"/>
</clipPath>
<clipPath id="clip1_324_969">
<rect width="16" height="14.22" fill="white" transform="translate(0 0.0899658)"/>
</clipPath>
<clipPath id="clip2_324_969">
<rect width="15.9975" height="14.22" fill="white" transform="translate(0.00146484 0.0899658)"/>
</clipPath>
</defs>
</svg>
