<svg width="28" height="28" viewBox="0 0 28 28" fill="none" xmlns="http://www.w3.org/2000/svg">
<g clip-path="url(#clip0_324_1079)">
<path d="M28 14C28 21.7298 21.7356 27.9965 14.0064 28H13.8553C13.1767 27.9929 12.4994 27.937 11.8288 27.8326C11.2797 27.7477 10.7362 27.6297 10.2013 27.4791C7.26469 26.6504 4.67904 24.8853 2.83763 22.4523C0.996228 20.0192 -0.000164401 17.0513 2.0346e-08 14C2.0346e-08 6.26909 6.26617 5.58524e-06 14 5.58524e-06H14.0064C15.9111 -0.00169827 17.7959 0.386453 19.5449 1.14056C21.2939 1.89467 22.87 2.99879 24.1763 4.38492C26.633 6.98335 28.0013 10.424 28 14Z" fill="white"/>
<path d="M10.4668 9.83627V10.4663H8.43151L2.71484 5.71268C3.0682 5.23201 3.45204 4.77452 3.86401 4.34302L10.4668 9.83627Z" fill="#C8102E"/>
<path d="M25.3032 5.73836L19.6198 10.4634H17.5332V9.87886L24.1587 4.36694L24.1762 4.38503C24.5581 4.78761 24.9153 5.21286 25.246 5.65844L25.3032 5.73836Z" fill="#C8102E"/>
<path d="M10.4667 17.5327V18.1627L3.86392 23.6571C3.80558 23.5988 3.74725 23.5358 3.69242 23.4745C3.34509 23.0972 3.01889 22.7009 2.71533 22.2875L8.432 17.5327H10.4667Z" fill="#C8102E"/>
<path d="M25.3038 22.2612C24.9519 22.7423 24.5696 23.2003 24.1593 23.6326L17.5332 18.1201V17.5327H19.6198L25.3038 22.2612Z" fill="#C8102E"/>
<path d="M5.59121 10.4661H0.449707C0.741798 9.34593 1.17293 8.26674 1.73304 7.25366L5.59121 10.4661Z" fill="#012169"/>
<path d="M5.47512 17.5327L1.69162 20.6792C1.15095 19.6849 0.733878 18.6282 0.449707 17.5327H5.47512Z" fill="#012169"/>
<path d="M10.4665 20.4912V27.5495C10.3779 27.5268 10.2915 27.5029 10.2011 27.4778C8.36667 26.9612 6.65754 26.0742 5.1792 24.8715L10.4665 20.4912Z" fill="#012169"/>
<path d="M10.4669 0.449707V7.39721L5.2583 3.06421C6.79107 1.83574 8.56599 0.944802 10.4669 0.449707Z" fill="#012169"/>
<path d="M22.8217 3.12945L17.5332 7.5132V0.450195L17.6131 0.470612C19.5178 0.978697 21.293 1.88491 22.8217 3.12945Z" fill="#012169"/>
<path d="M27.5504 10.4661H22.5337L26.3084 7.32544C26.8486 8.31793 27.2656 9.37261 27.5504 10.4661Z" fill="#012169"/>
<path d="M22.8666 24.8371C21.3067 26.116 19.4882 27.0417 17.5361 27.5502V20.4026L22.8666 24.8371Z" fill="#012169"/>
<path d="M27.5504 17.5327C27.2723 18.6018 26.8679 19.634 26.3458 20.6075L22.6504 17.5327H27.5504Z" fill="#012169"/>
<path d="M28 13.8536V14.133C27.994 14.7858 27.9427 15.4374 27.8466 16.0831H16.0831V27.846C15.4414 27.9417 14.794 27.9932 14.1453 28H13.8536C13.2046 27.9933 12.557 27.9417 11.9152 27.8454V16.0831H0.154C0.0582764 15.4407 0.00682185 14.7924 0 14.1429C0 14.0513 0 13.9592 0 13.867C0.00603476 13.214 0.0572964 12.5622 0.153417 11.9163H11.9169V0.154C12.5278 0.0626757 13.1439 0.0112334 13.7614 0L14.2129 0C14.8022 0.00842568 15.3904 0.0540162 15.974 0.1365L16.0831 0.152833V11.9163H27.846C27.9417 12.5578 27.9932 13.2051 28 13.8536Z" fill="#C8102E"/>
</g>
<defs>
<clipPath id="clip0_324_1079">
<rect width="28" height="28" fill="white"/>
</clipPath>
</defs>
</svg>
