<svg width="16" height="17" viewBox="0 0 16 17" fill="none" xmlns="http://www.w3.org/2000/svg">
<g clip-path="url(#clip0_324_833)">
<path d="M15.9932 9.49626C15.9916 9.73176 15.8976 9.95723 15.7314 10.124C15.5651 10.2908 15.34 10.3855 15.1045 10.3878H14.2158L14.2353 14.8371C14.2348 14.9123 14.2301 14.9874 14.2214 15.0621V15.5092C14.2214 15.6551 14.1927 15.7996 14.1369 15.9344C14.0811 16.0692 13.9993 16.1917 13.8961 16.2949C13.7929 16.398 13.6705 16.4798 13.5357 16.5357C13.4009 16.5915 13.2564 16.6202 13.1105 16.6201H12.6662C12.6356 16.6201 12.6051 16.6201 12.5745 16.6174C12.5357 16.6201 12.4968 16.6201 12.4579 16.6201H10.8888C10.7429 16.6202 10.5985 16.5915 10.4637 16.5357C10.3289 16.4798 10.2064 16.398 10.1033 16.2949C10.0001 16.1917 9.91828 16.0692 9.86247 15.9344C9.80666 15.7996 9.77795 15.6551 9.77799 15.5092V13.0651C9.77812 12.9484 9.75521 12.8328 9.7106 12.7249C9.66598 12.617 9.60053 12.519 9.51798 12.4364C9.43544 12.3539 9.33742 12.2884 9.22955 12.2438C9.12167 12.1992 9.00605 12.1763 8.88932 12.1764H7.11197C6.99523 12.1763 6.87961 12.1992 6.77174 12.2438C6.66386 12.2884 6.56585 12.3539 6.4833 12.4364C6.40076 12.519 6.3353 12.617 6.29069 12.7249C6.24607 12.8328 6.22317 12.9484 6.22329 13.0651V15.5092C6.22333 15.6551 6.19463 15.7996 6.13882 15.9344C6.08301 16.0692 6.00118 16.1917 5.89802 16.2949C5.79486 16.398 5.67239 16.4798 5.5376 16.5357C5.40281 16.5915 5.25834 16.6202 5.11245 16.6201H3.56004C3.51839 16.6201 3.47673 16.6174 3.43507 16.6146C3.40175 16.6174 3.36842 16.6201 3.3351 16.6201H2.89076C2.74487 16.6202 2.6004 16.5915 2.46561 16.5357C2.33082 16.4798 2.20835 16.398 2.10519 16.2949C2.00203 16.1917 1.9202 16.0692 1.86439 15.9344C1.80858 15.7996 1.77988 15.6551 1.77992 15.5092V12.3986C1.77946 12.3726 1.78038 12.3467 1.78269 12.3208V10.3878H0.891243C0.773903 10.3892 0.657464 10.3671 0.548807 10.3228C0.440151 10.2785 0.341482 10.2128 0.258634 10.1297C0.175786 10.0466 0.110439 9.94773 0.0664574 9.83893C0.0224756 9.73012 0.000750937 9.6136 0.00256766 9.49626C0.00048967 9.37202 0.0240826 9.24869 0.0718691 9.134C0.119656 9.0193 0.190606 8.9157 0.280279 8.8297L7.40079 2.62233C7.59518 2.42792 7.81735 2.40015 8.01175 2.40015C8.20615 2.40015 8.42832 2.45569 8.59494 2.59456L15.6877 8.8297C15.9098 9.02411 16.0209 9.2463 15.9932 9.49626Z" fill="#FBFAF9"/>
</g>
<defs>
<clipPath id="clip0_324_833">
<rect width="16" height="14.22" fill="white" transform="translate(0 2.40015)"/>
</clipPath>
</defs>
</svg>
