<svg width="14" height="13" viewBox="0 0 14 13" fill="none" xmlns="http://www.w3.org/2000/svg">
<g clip-path="url(#clip0_324_1035)">
<g clip-path="url(#clip1_324_1035)">
<g clip-path="url(#clip2_324_1035)">
<path d="M0.295998 5.79399C0.108593 5.98172 0.00333636 6.23614 0.00333638 6.5014C0.00333641 6.76665 0.108593 7.02107 0.295998 7.2088L5.29402 12.2068C5.48276 12.3889 5.73545 12.4896 5.9977 12.4873C6.25996 12.4849 6.5108 12.3797 6.69625 12.1942C6.8817 12.0088 6.98692 11.7579 6.98927 11.4957C6.99162 11.2334 6.89092 10.9808 6.70883 10.792L3.4132 7.49918L12.9971 7.49918C13.1306 7.50271 13.2634 7.47947 13.3878 7.43083C13.5121 7.38219 13.6255 7.30912 13.7212 7.21596C13.8168 7.12279 13.8929 7.01142 13.9448 6.88839C13.9967 6.76536 14.0234 6.63318 14.0234 6.49964C14.0234 6.36611 13.9967 6.23393 13.9448 6.1109C13.8929 5.98788 13.8168 5.8765 13.7212 5.78333C13.6255 5.69017 13.5121 5.61711 13.3878 5.56846C13.2634 5.51982 13.1306 5.49658 12.9971 5.50011L3.4167 5.50011L6.70533 2.20728C6.88742 2.01854 6.98812 1.76585 6.98577 1.5036C6.98342 1.24135 6.8782 0.990501 6.69275 0.805053C6.5073 0.619606 6.25646 0.514378 5.9942 0.512027C5.73195 0.509674 5.47926 0.610386 5.29052 0.792476L0.292499 5.79049L0.295998 5.79399Z" fill="black"/>
</g>
</g>
</g>
<defs>
<clipPath id="clip0_324_1035">
<rect width="14" height="12" fill="white" transform="translate(14 12.5) rotate(180)"/>
</clipPath>
<clipPath id="clip1_324_1035">
<rect width="14" height="12" fill="white" transform="translate(14 12.5) rotate(180)"/>
</clipPath>
<clipPath id="clip2_324_1035">
<rect width="13.9942" height="12" fill="white" transform="translate(13.9971 12.5) rotate(180)"/>
</clipPath>
</defs>
</svg>
