<svg width="16" height="16" viewBox="0 0 16 16" fill="none" xmlns="http://www.w3.org/2000/svg">
<g clip-path="url(#clip0_324_1126)">
<path d="M8.02503 -0.000181169C3.58753 -0.0126812 -0.0124675 3.58732 3.24538e-05 8.02482C0.0125325 12.4123 3.67191 15.9998 8.05941 15.9998L16 15.9998L16 8.05919C16 3.67169 12.4125 0.0123188 8.02503 -0.000181169ZM8.71253 12.0748C8.50316 12.2592 8.24378 12.3529 7.93128 12.3529C7.61878 12.3529 7.35941 12.2592 7.15003 12.0748C6.94066 11.8904 6.83753 11.6529 6.83753 11.3654C6.83753 11.0779 6.94066 10.8404 7.15003 10.6561C7.35941 10.4717 7.61878 10.3779 7.93128 10.3779C8.24378 10.3779 8.50316 10.4717 8.71253 10.6561C8.92191 10.8404 9.02503 11.0779 9.02503 11.3654C9.02503 11.6529 8.91878 11.8873 8.71253 12.0748ZM10.5625 6.84669C10.4344 7.11232 10.2282 7.38419 9.94378 7.65919L9.27191 8.28419C9.08128 8.46857 8.94691 8.65607 8.87503 8.84982C8.80003 9.04357 8.75941 9.28732 8.75316 9.58419L7.07816 9.58419C7.07816 9.01544 7.14378 8.56544 7.27191 8.23732C7.40316 7.90294 7.61878 7.60919 7.89691 7.38107C8.18441 7.14044 8.40628 6.91857 8.55628 6.71857C8.70316 6.52794 8.78128 6.29357 8.78128 6.05607C8.78128 5.46857 8.52816 5.17169 8.02191 5.17169C7.80316 5.16544 7.59378 5.25919 7.45628 5.42794C7.31253 5.59982 7.23441 5.83107 7.22816 6.12482H5.25316C5.26253 5.34357 5.50628 4.73732 5.99066 4.30294C6.47503 3.86857 7.15316 3.64982 8.02503 3.64982C8.89378 3.64982 9.56878 3.84982 10.0469 4.25294C10.525 4.65607 10.7625 5.22482 10.7625 5.96544C10.7594 6.26857 10.6938 6.57169 10.5625 6.84669Z" fill="black"/>
</g>
<defs>
<clipPath id="clip0_324_1126">
<rect width="16" height="16" fill="white"/>
</clipPath>
</defs>
</svg>
