<svg width="26" height="26" viewBox="0 0 26 26" fill="none" xmlns="http://www.w3.org/2000/svg">
<g clip-path="url(#clip0_324_747)">
<path d="M24.4707 10.7059C23.6261 10.7059 22.9413 11.3906 22.9413 12.2353V16.8235H17.5884V19.8823H20.6472V22.9412H19.1178V26H20.6472V24.4706H22.1766V26H23.706V22.9412H22.1766V19.8823H26.0001C26.0001 18.0768 26.0001 13.4268 26.0001 12.2353C26.0001 11.3906 25.3154 10.7059 24.4707 10.7059Z" fill="#0A65DB"/>
<path d="M6.11779 10.7059H12.2354V12.2353H13.7648V10.7059H19.8825V1.52941H21.4119V0H4.58838V1.52941H6.11779V10.7059ZM10.706 7.64706H9.17661V6.11765H10.706V7.64706ZM13.7648 7.64706H12.2354V4.58824H13.7648V7.64706ZM16.8237 7.64706H15.2943V3.05882H16.8237V7.64706Z" fill="#0A65DB"/>
<path d="M9.94141 18.3529H12.2355V26H13.7649V18.3529H16.0591V16.8235H9.94141V18.3529Z" fill="#0A65DB"/>
<path d="M3.05882 12.2353C3.05882 11.3906 2.37405 10.7059 1.52941 10.7059C0.684769 10.7059 0 11.3906 0 12.2353V19.8823H3.82353V22.9412H2.29412V26H3.82353V24.4706H5.35294V26H6.88235V22.9412H5.35294V19.8823H8.41177V16.8235H3.05882V12.2353Z" fill="#0A65DB"/>
</g>
<defs>
<clipPath id="clip0_324_747">
<rect width="26" height="26" fill="white"/>
</clipPath>
</defs>
</svg>
