<svg width="22" height="22" viewBox="0 0 22 22" fill="none" xmlns="http://www.w3.org/2000/svg">
<g clip-path="url(#clip0_324_1662)">
<path d="M1.07442 -0.000143051C0.86193 -0.000183105 0.654202 0.0627975 0.477511 0.18083C0.30082 0.298864 0.163103 0.46665 0.0817817 0.662962C0.000460159 0.859276 -0.0208133 1.0753 0.0206523 1.2837C0.0621178 1.49211 0.164459 1.68353 0.314732 1.83376L20.1663 21.6853C20.3678 21.8868 20.641 22 20.926 22C21.2109 22 21.4842 21.8868 21.6857 21.6853C21.8871 21.4838 22.0003 21.2106 22.0003 20.9256C22.0003 20.6407 21.8871 20.3674 21.6857 20.166L1.83411 0.314388C1.73444 0.21451 1.61601 0.135309 1.48564 0.0813313C1.35527 0.0273552 1.21552 -0.000333786 1.07442 -0.000143051Z" fill="black"/>
<path d="M20.9259 -0.000143051C20.7848 -0.000333786 20.6451 0.0273552 20.5147 0.0813313C20.3843 0.135309 20.2659 0.21451 20.1662 0.314388L0.314673 20.166C0.113191 20.3674 0 20.6407 0 20.9256C0 21.2106 0.113191 21.4838 0.314673 21.6853C0.516155 21.8868 0.789422 22 1.07436 22C1.3593 22 1.63257 21.8868 1.83405 21.6853L21.6856 1.83376C21.8359 1.68353 21.9382 1.49211 21.9797 1.2837C22.0212 1.0753 21.9999 0.859276 21.9186 0.662962C21.8372 0.46665 21.6995 0.298864 21.5228 0.18083C21.3461 0.0627975 21.1384 -0.000183105 20.9259 -0.000143051Z" fill="black"/>
</g>
<defs>
<clipPath id="clip0_324_1662">
<rect width="22" height="22" fill="white" transform="matrix(1 0 0 -1 0 22)"/>
</clipPath>
</defs>
</svg>
