<svg width="17" height="16" viewBox="0 0 17 16" fill="none" xmlns="http://www.w3.org/2000/svg">
<g clip-path="url(#clip0_324_1297)">
<path d="M14.6387 6.66667C14.6387 6.48986 14.5684 6.32029 14.4434 6.19526C14.3184 6.07024 14.1488 6 13.972 6C13.7952 6 13.6256 6.07024 13.5006 6.19526C13.3756 6.32029 13.3053 6.48986 13.3053 6.66667C13.3053 7.90434 12.8137 9.09133 11.9385 9.9665C11.0633 10.8417 9.87635 11.3333 8.63867 11.3333C7.401 11.3333 6.21401 10.8417 5.33884 9.9665C4.46367 9.09133 3.97201 7.90434 3.97201 6.66667C3.97201 6.48986 3.90177 6.32029 3.77674 6.19526C3.65172 6.07024 3.48215 6 3.30534 6C3.12853 6 2.95896 6.07024 2.83393 6.19526C2.70891 6.32029 2.63867 6.48986 2.63867 6.66667C2.64067 8.14174 3.18537 9.56451 4.16896 10.6638C5.15254 11.7631 6.50623 12.462 7.97201 12.6273V14.6667H6.63867C6.46186 14.6667 6.29229 14.7369 6.16727 14.8619C6.04224 14.987 5.97201 15.1565 5.97201 15.3333C5.97201 15.5101 6.04224 15.6797 6.16727 15.8047C6.29229 15.9298 6.46186 16 6.63867 16H10.6387C10.8155 16 10.9851 15.9298 11.1101 15.8047C11.2351 15.6797 11.3053 15.5101 11.3053 15.3333C11.3053 15.1565 11.2351 14.987 11.1101 14.8619C10.9851 14.7369 10.8155 14.6667 10.6387 14.6667H9.30534V12.6273C10.7711 12.462 12.1248 11.7631 13.1084 10.6638C14.092 9.56451 14.6367 8.14174 14.6387 6.66667Z" fill="black"/>
<path d="M8.63851 10C9.52224 9.99894 10.3695 9.64741 10.9944 9.02252C11.6193 8.39763 11.9708 7.5504 11.9718 6.66667V3.33333C11.9718 2.44928 11.6207 1.60143 10.9955 0.976311C10.3704 0.351189 9.52256 0 8.63851 0C7.75445 0 6.90661 0.351189 6.28149 0.976311C5.65637 1.60143 5.30518 2.44928 5.30518 3.33333V6.66667C5.30623 7.5504 5.65776 8.39763 6.28266 9.02252C6.90755 9.64741 7.75478 9.99894 8.63851 10Z" fill="black"/>
</g>
<defs>
<clipPath id="clip0_324_1297">
<rect width="16" height="16" fill="white" transform="translate(0.638672)"/>
</clipPath>
</defs>
</svg>
