<?xml version="1.0" encoding="utf-8"?>
<!-- Generator: Adobe Illustrator 17.0.0, SVG Export Plug-In . SVG Version: 6.00 Build 0)  -->
<!DOCTYPE svg PUBLIC "-//W3C//DTD SVG 1.1//EN" "http://www.w3.org/Graphics/SVG/1.1/DTD/svg11.dtd">
<svg version="1.1" id="Layer_1" xmlns="http://www.w3.org/2000/svg" xmlns:xlink="http://www.w3.org/1999/xlink" x="0px" y="0px"
	 width="70px" height="70px" viewBox="0 0 70 70" enable-background="new 0 0 70 70" xml:space="preserve">
<g>
	<defs>
		<rect id="SVGID_1_" width="70" height="70"/>
	</defs>
	<clipPath id="SVGID_2_">
		<use xlink:href="#SVGID_1_"  overflow="visible"/>
	</clipPath>
	<g clip-path="url(#SVGID_2_)">
		<path d="M67.998,9.57c-1.03-1.032-2.701-1.033-3.73-0.004L32.619,41.131L21.2,28.729c-0.987-1.071-2.655-1.141-3.728-0.154
			c-1.072,0.987-1.141,2.656-0.154,3.728l13.279,14.421c0.486,0.528,1.167,0.836,1.885,0.85c0.019,0.001,0.038,0.001,0.056,0.001
			c0.697,0,1.368-0.277,1.862-0.77l33.593-33.505C69.026,12.272,69.027,10.601,67.998,9.57z"/>
		<path d="M67.362,32.362c-1.457,0-2.638,1.181-2.638,2.638c0,16.39-13.333,29.724-29.724,29.724
			C18.611,64.724,5.276,51.39,5.276,35C5.276,18.611,18.611,5.276,35,5.276c1.457,0,2.638-1.181,2.638-2.638
			C37.638,1.181,36.457,0,35,0C15.701,0,0,15.701,0,35c0,19.298,15.701,35,35,35c19.298,0,35-15.702,35-35
			C70,33.543,68.819,32.362,67.362,32.362z"/>
	</g>
</g>
</svg>
