<?xml version="1.0" encoding="utf-8"?>
<!-- Generator: Adobe Illustrator 17.0.0, SVG Export Plug-In . SVG Version: 6.00 Build 0)  -->
<!DOCTYPE svg PUBLIC "-//W3C//DTD SVG 1.1//EN" "http://www.w3.org/Graphics/SVG/1.1/DTD/svg11.dtd">
<svg version="1.1" id="Layer_1" xmlns="http://www.w3.org/2000/svg" xmlns:xlink="http://www.w3.org/1999/xlink" x="0px" y="0px"
	 width="20px" height="22px" viewBox="0 0 20 22" enable-background="new 0 0 20 22" xml:space="preserve">
<g>
	<defs>
		<rect id="SVGID_1_" y="0" width="20" height="21.31"/>
	</defs>
	<clipPath id="SVGID_2_">
		<use xlink:href="#SVGID_1_"  overflow="visible"/>
	</clipPath>
	<g clip-path="url(#SVGID_2_)">
		<defs>
			<filter id="Adobe_OpacityMaskFilter" filterUnits="userSpaceOnUse" x="0.419" y="3.899" width="19.162" height="13.512">
				<feColorMatrix  type="matrix" values="1 0 0 0 0  0 1 0 0 0  0 0 1 0 0  0 0 0 1 0"/>
			</filter>
		</defs>
		<mask maskUnits="userSpaceOnUse" x="0.419" y="3.899" width="19.162" height="13.512" id="mask0_324_1713">
			<path fill="#FFFFFF" filter="url(#Adobe_OpacityMaskFilter)" d="M20,3.494H0v14.323h20V3.494z"/>
		</mask>
		<g mask="url(#mask0_324_1713)">
			<g>
				<path d="M18.838,11.398H1.162c-0.411,0-0.743-0.333-0.743-0.743s0.333-0.743,0.743-0.743h17.676c0.41,0,0.743,0.333,0.743,0.743
					S19.248,11.398,18.838,11.398z"/>
			</g>
			<g>
				<path d="M18.838,17.411H1.162c-0.411,0-0.743-0.333-0.743-0.743s0.333-0.743,0.743-0.743h17.676c0.41,0,0.743,0.333,0.743,0.743
					S19.248,17.411,18.838,17.411z"/>
			</g>
			<g>
				<path d="M18.838,5.385H1.162c-0.411,0-0.743-0.333-0.743-0.743s0.333-0.743,0.743-0.743h17.676c0.41,0,0.743,0.333,0.743,0.743
					S19.248,5.385,18.838,5.385z"/>
			</g>
		</g>
	</g>
</g>
</svg>
