<svg width="16" height="17" viewBox="0 0 16 17" fill="none" xmlns="http://www.w3.org/2000/svg">
<g clip-path="url(#clip0_324_845)">
<g clip-path="url(#clip1_324_845)">
<g clip-path="url(#clip2_324_845)">
<path d="M15.5645 0.375038C15.7193 0.481473 15.841 0.629391 15.9156 0.801827C15.9902 0.974263 16.0147 1.16424 15.9863 1.34996L13.9865 14.3489C13.963 14.4989 13.9058 14.6415 13.8191 14.7661C13.7324 14.8906 13.6186 14.9938 13.4861 15.0679C13.3536 15.1419 13.2061 15.1849 13.0546 15.1935C12.9031 15.2021 12.7516 15.1762 12.6116 15.1176L8.66502 13.4771L7.41199 15.8051C7.33258 15.9522 7.20638 16.0686 7.05336 16.1359C6.90035 16.2032 6.72925 16.2175 6.56716 16.1767C6.40507 16.1358 6.26124 16.042 6.15845 15.9102C6.05565 15.7784 5.99975 15.616 5.99961 15.4489V12.4491C5.99989 12.2825 6.056 12.1208 6.15897 11.9898L11.3242 5.34652C11.4023 5.12467 11.1211 4.89968 10.918 5.08404L5.32466 10.143L4.32474 11.0461C4.18409 11.1735 4.01006 11.2582 3.82301 11.2903C3.63597 11.3224 3.44365 11.3005 3.26857 11.2273L0.612526 10.1212C0.440587 10.0495 0.292273 9.93091 0.184526 9.77895C0.0767783 9.627 0.0139432 9.44781 0.00319863 9.26184C-0.0077729 9.07521 0.0334898 8.88921 0.122355 8.72473C0.211221 8.56025 0.344171 8.42379 0.506284 8.33067L14.5052 0.331291C14.6686 0.238282 14.8548 0.193066 15.0427 0.200801C15.2305 0.208536 15.4124 0.26891 15.5676 0.375038H15.5645Z" fill="#2887FB"/>
</g>
</g>
</g>
<defs>
<clipPath id="clip0_324_845">
<rect width="16" height="16" fill="white" transform="translate(0 0.199951)"/>
</clipPath>
<clipPath id="clip1_324_845">
<rect width="16" height="16" fill="white" transform="translate(0 0.199951)"/>
</clipPath>
<clipPath id="clip2_324_845">
<rect width="15.9967" height="16" fill="white" transform="translate(0.00146484 0.199951)"/>
</clipPath>
</defs>
</svg>
