<svg width="14" height="13" viewBox="0 0 14 13" fill="none" xmlns="http://www.w3.org/2000/svg">
<g clip-path="url(#clip0_324_941)">
<g clip-path="url(#clip1_324_941)">
<path d="M13.704 7.20601C13.8914 7.01828 13.9967 6.76386 13.9967 6.49861C13.9967 6.23335 13.8914 5.97893 13.704 5.7912L8.70598 0.793183C8.51724 0.611092 8.26455 0.510383 8.0023 0.512736C7.74004 0.515088 7.4892 0.620313 7.30375 0.80576C7.1183 0.991208 7.01308 1.24205 7.01073 1.50431C7.00838 1.76656 7.10908 2.01925 7.29117 2.20799L10.5868 5.50082H1.00289C0.869408 5.49729 0.736567 5.52053 0.61221 5.56917C0.487852 5.61782 0.374498 5.69088 0.278835 5.78404C0.183173 5.87721 0.10714 5.98858 0.0552249 6.11161C0.0033094 6.23464 -0.0234375 6.36682 -0.0234375 6.50036C-0.0234375 6.63389 0.0033094 6.76607 0.0552249 6.8891C0.10714 7.01212 0.183173 7.1235 0.278835 7.21667C0.374498 7.30983 0.487852 7.38289 0.61221 7.43154C0.736567 7.48018 0.869408 7.50342 1.00289 7.49989H10.5833L7.29467 10.7927C7.11258 10.9815 7.01187 11.2341 7.01423 11.4964C7.01658 11.7587 7.1218 12.0095 7.30725 12.1949C7.4927 12.3804 7.74354 12.4856 8.00579 12.488C8.26805 12.4903 8.52074 12.3896 8.70948 12.2075L13.7075 7.20951L13.704 7.20601Z" fill="black"/>
</g>
</g>
<defs>
<clipPath id="clip0_324_941">
<rect width="14" height="12" fill="white" transform="translate(0 0.5)"/>
</clipPath>
<clipPath id="clip1_324_941">
<rect width="13.9942" height="12" fill="white" transform="translate(0.00292969 0.5)"/>
</clipPath>
</defs>
</svg>
