<svg width="16" height="12" viewBox="0 0 16 12" fill="none" xmlns="http://www.w3.org/2000/svg">
<g clip-path="url(#clip0_324_947)">
<g clip-path="url(#clip1_324_947)">
<g clip-path="url(#clip2_324_947)">
<path d="M1.36197 4.87867C3.14754 3.1653 5.52638 2.20858 8.00103 2.20858C10.4757 2.20858 12.8545 3.1653 14.6401 4.87867C14.7156 4.95197 14.8048 5.00962 14.9026 5.04833C15.0005 5.08703 15.105 5.10602 15.2102 5.1042C15.3154 5.10238 15.4192 5.07979 15.5156 5.03773C15.612 4.99567 15.6992 4.93496 15.7721 4.8591C15.845 4.78324 15.9022 4.69372 15.9404 4.59568C15.9786 4.49765 15.997 4.39303 15.9947 4.28785C15.9923 4.18266 15.9692 4.07899 15.9266 3.98277C15.884 3.88656 15.8229 3.7997 15.7466 3.7272C13.6635 1.72739 10.8879 0.610451 8.00029 0.609985C5.11266 0.60952 2.33667 1.72557 0.252957 3.7247C0.177186 3.79736 0.116468 3.88423 0.0742687 3.98035C0.0320695 4.07647 0.00921569 4.17996 0.00701227 4.28491C0.00256225 4.49687 0.0824957 4.70192 0.229228 4.85494C0.375961 5.00797 0.577473 5.09644 0.789434 5.10089C1.00139 5.10534 1.20644 5.0254 1.35947 4.87867H1.36197ZM8.00103 6.20499C9.36444 6.20299 10.6813 6.7006 11.7027 7.60374C11.7813 7.67397 11.8731 7.72797 11.9726 7.76264C12.0722 7.7973 12.1776 7.81194 12.2828 7.80572C12.3881 7.7995 12.491 7.77254 12.5858 7.72639C12.6806 7.68023 12.7653 7.6158 12.8351 7.53679C12.9049 7.45778 12.9584 7.36576 12.9925 7.26601C13.0266 7.16626 13.0406 7.06075 13.0338 6.95555C13.027 6.85036 12.9995 6.74754 12.9528 6.65303C12.9061 6.55851 12.8412 6.47415 12.7618 6.40481C11.4471 5.24587 9.75482 4.60642 8.00228 4.60642C6.24974 4.60642 4.55742 5.24587 3.24279 6.40481C3.16406 6.47435 3.09981 6.55871 3.05369 6.65308C3.00757 6.74745 2.98049 6.84998 2.97399 6.95482C2.9675 7.05966 2.98172 7.16475 3.01584 7.26409C3.04996 7.36343 3.10331 7.45508 3.17285 7.5338C3.24239 7.61252 3.32675 7.67678 3.42112 7.7229C3.51549 7.76902 3.61802 7.7961 3.72286 7.80259C3.8277 7.80908 3.93278 7.79487 4.03213 7.76075C4.13147 7.72663 4.22312 7.67328 4.30184 7.60374C5.32276 6.69982 6.63996 6.20209 8.00353 6.20499H8.00103ZM9.59961 10.2014C9.59961 9.88525 9.50585 9.57618 9.3302 9.3133C9.15454 9.05041 8.90488 8.84552 8.61278 8.72453C8.32068 8.60354 7.99926 8.57188 7.68917 8.63356C7.37908 8.69524 7.09424 8.84749 6.87067 9.07106C6.64711 9.29462 6.49486 9.57946 6.43318 9.88955C6.3715 10.1996 6.40315 10.5211 6.52415 10.8132C6.64514 11.1053 6.85003 11.3549 7.11292 11.5306C7.3758 11.7062 7.68487 11.8 8.00103 11.8C8.425 11.8 8.8316 11.6316 9.13139 11.3318C9.43118 11.032 9.59961 10.6254 9.59961 10.2014Z" fill="black"/>
</g>
</g>
</g>
<defs>
<clipPath id="clip0_324_947">
<rect width="16" height="11.19" fill="white" transform="translate(0 0.609985)"/>
</clipPath>
<clipPath id="clip1_324_947">
<rect width="16" height="11.19" fill="white" transform="translate(0 0.609985)"/>
</clipPath>
<clipPath id="clip2_324_947">
<rect width="15.9829" height="11.19" fill="white" transform="translate(0.00830078 0.609985)"/>
</clipPath>
</defs>
</svg>
