<svg width="16" height="16" viewBox="0 0 16 16" fill="none" xmlns="http://www.w3.org/2000/svg">
<g clip-path="url(#clip0_324_917)">
<g clip-path="url(#clip1_324_917)">
<g clip-path="url(#clip2_324_917)">
<path d="M8.86955 0.994873C8.7899 0.831485 8.66594 0.693769 8.5118 0.597432C8.35766 0.501094 8.17955 0.450012 7.99778 0.450012C7.81601 0.450012 7.63789 0.501094 7.48375 0.597432C7.32961 0.693769 7.20565 0.831485 7.126 0.994873L5.17963 4.9996L0.83285 5.64133C0.654979 5.66783 0.487996 5.74332 0.350594 5.85935C0.213193 5.97537 0.110798 6.12735 0.0548728 6.29827C-0.00105262 6.46918 -0.00830074 6.6523 0.0339399 6.8271C0.0761806 7.0019 0.166243 7.1615 0.294043 7.28802L3.44818 10.4089L2.70354 14.8192C2.67382 14.9979 2.69467 15.1814 2.76374 15.3488C2.83281 15.5163 2.94733 15.6611 3.09438 15.7669C3.24143 15.8727 3.41513 15.9353 3.59587 15.9475C3.7766 15.9598 3.95717 15.9213 4.11715 15.8363L8.0008 13.7628L11.8845 15.8363C12.0444 15.9213 12.225 15.9598 12.4057 15.9475C12.5865 15.9353 12.7602 15.8727 12.9072 15.7669C13.0543 15.6611 13.1688 15.5163 13.2379 15.3488C13.3069 15.1814 13.3278 14.9979 13.2981 14.8192L12.5504 10.4089L15.7045 7.28802C15.8323 7.1615 15.9224 7.0019 15.9646 6.8271C16.0069 6.6523 15.9996 6.46918 15.9437 6.29827C15.8878 6.12735 15.7854 5.97537 15.648 5.85935C15.5106 5.74332 15.3436 5.66783 15.1657 5.64133L10.8159 4.9996L8.86955 0.994873Z" fill="black"/>
</g>
</g>
</g>
<defs>
<clipPath id="clip0_324_917">
<rect width="16" height="15.5" fill="white" transform="translate(0 0.450012)"/>
</clipPath>
<clipPath id="clip1_324_917">
<rect width="16" height="15.5" fill="white" transform="translate(0 0.450012)"/>
</clipPath>
<clipPath id="clip2_324_917">
<rect width="15.9843" height="15.5" fill="white" transform="translate(0.0078125 0.450012)"/>
</clipPath>
</defs>
</svg>
