<svg width="29" height="21" viewBox="0 0 29 21" fill="none" xmlns="http://www.w3.org/2000/svg">
<g clip-path="url(#clip0_324_713)">
<g clip-path="url(#clip1_324_713)">
<g clip-path="url(#clip2_324_713)">
<path d="M5.35986 0.5C4.69701 0.50061 4.06148 0.764198 3.59277 1.23291C3.12406 1.70162 2.86047 2.33715 2.85986 3V14.25C2.86047 14.9129 3.12406 15.5484 3.59277 16.0171C4.06148 16.4858 4.69701 16.7494 5.35986 16.75H12.2349L11.8169 18H9.10986C8.77834 18 8.4604 18.1317 8.22598 18.3661C7.99156 18.6005 7.85986 18.9185 7.85986 19.25C7.85986 19.5815 7.99156 19.8995 8.22598 20.1339C8.4604 20.3683 8.77834 20.5 9.10986 20.5H19.1099C19.4414 20.5 19.7593 20.3683 19.9937 20.1339C20.2282 19.8995 20.3599 19.5815 20.3599 19.25C20.3599 18.9185 20.2282 18.6005 19.9937 18.3661C19.7593 18.1317 19.4414 18 19.1099 18H16.4028L15.9849 16.75H22.8599C23.5227 16.7494 24.1582 16.4858 24.627 16.0171C25.0957 15.5484 25.3593 14.9129 25.3599 14.25V3C25.3593 2.33715 25.0957 1.70162 24.627 1.23291C24.1582 0.764198 23.5227 0.50061 22.8599 0.5L5.35986 0.5ZM22.8599 3V11.75H5.35986V3H22.8599Z" fill="#0A65DB"/>
</g>
</g>
</g>
<defs>
<clipPath id="clip0_324_713">
<rect width="28" height="20" fill="white" transform="translate(0.109863 0.5)"/>
</clipPath>
<clipPath id="clip1_324_713">
<rect width="28" height="20" fill="white" transform="translate(0.109863 0.5)"/>
</clipPath>
<clipPath id="clip2_324_713">
<rect width="22.5" height="20" fill="white" transform="translate(2.85986 0.5)"/>
</clipPath>
</defs>
</svg>
