<?xml version="1.0" encoding="utf-8"?>
<!-- Generator: Adobe Illustrator 17.0.0, SVG Export Plug-In . SVG Version: 6.00 Build 0)  -->
<!DOCTYPE svg PUBLIC "-//W3C//DTD SVG 1.1//EN" "http://www.w3.org/Graphics/SVG/1.1/DTD/svg11.dtd">
<svg version="1.1" id="Layer_1" xmlns="http://www.w3.org/2000/svg" xmlns:xlink="http://www.w3.org/1999/xlink" x="0px" y="0px"
	 width="29px" height="21px" viewBox="0 0 29 21" enable-background="new 0 0 29 21" xml:space="preserve">
<g>
	<defs>
		<rect id="SVGID_1_" x="0.33" y="0.37" width="28" height="20"/>
	</defs>
	<clipPath id="SVGID_2_">
		<use xlink:href="#SVGID_1_"  overflow="visible"/>
	</clipPath>
	<g clip-path="url(#SVGID_2_)">
		<g>
			<defs>
				<rect id="SVGID_3_" x="0.33" y="0.37" width="28" height="20"/>
			</defs>
			<clipPath id="SVGID_4_">
				<use xlink:href="#SVGID_3_"  overflow="visible"/>
			</clipPath>
			<g clip-path="url(#SVGID_4_)">
				<g>
					<defs>
						<rect id="SVGID_5_" x="4.33" y="0.37" width="20" height="20"/>
					</defs>
					<clipPath id="SVGID_6_">
						<use xlink:href="#SVGID_5_"  overflow="visible"/>
					</clipPath>
					<g clip-path="url(#SVGID_6_)">
						<path d="M15.58,4.12c0-0.332,0.132-0.649,0.366-0.884c0.234-0.234,0.552-0.366,0.884-0.366c0.332,0,0.649,0.132,0.884,0.366
							c0.234,0.234,0.366,0.552,0.366,0.884s0.132,0.649,0.366,0.884c0.234,0.234,0.552,0.366,0.884,0.366
							c0.332,0,0.649-0.132,0.884-0.366C20.448,4.77,20.58,4.452,20.58,4.12c0-0.995-0.395-1.948-1.098-2.652
							C18.778,0.765,17.825,0.37,16.83,0.37c-0.995,0-1.948,0.395-2.652,1.098C13.475,2.172,13.08,3.126,13.08,4.12v7.5h-2.5v-0.938
							c0-0.58-0.231-1.136-0.641-1.546c-0.41-0.41-0.966-0.641-1.546-0.641H6.518c-0.249,0-0.487,0.099-0.663,0.275
							C5.679,8.946,5.58,9.184,5.58,9.433s0.099,0.487,0.275,0.663c0.176,0.176,0.414,0.275,0.663,0.275h1.875
							c0.083,0,0.162,0.033,0.221,0.092c0.059,0.059,0.092,0.138,0.092,0.221v0.938H5.58c-0.332,0-0.649,0.132-0.884,0.366
							C4.462,12.221,4.33,12.539,4.33,12.87s0.132,0.649,0.366,0.884c0.234,0.234,0.552,0.366,0.884,0.366h17.5
							c0.332,0,0.649-0.132,0.884-0.366c0.234-0.234,0.366-0.552,0.366-0.884s-0.132-0.649-0.366-0.884
							c-0.235-0.234-0.552-0.366-0.884-0.366h-3.125v-0.938c0-0.083,0.033-0.162,0.092-0.221c0.059-0.058,0.138-0.091,0.221-0.092
							h2.188c0.249,0,0.487-0.099,0.663-0.275c0.176-0.176,0.275-0.414,0.275-0.663s-0.099-0.487-0.275-0.663
							c-0.176-0.176-0.414-0.275-0.663-0.275h-2.188c-0.58,0-1.136,0.231-1.546,0.641c-0.41,0.41-0.641,0.966-0.641,1.546v0.938
							h-2.5V4.12z M23.08,16.62v-1.25H5.58v1.25c0,0.994,0.395,1.948,1.099,2.651c0.703,0.703,1.657,1.098,2.651,1.099h10
							c0.995,0,1.948-0.395,2.651-1.099C22.685,18.568,23.08,17.615,23.08,16.62z"/>
					</g>
				</g>
			</g>
		</g>
	</g>
</g>
</svg>
