<?xml version="1.0" encoding="utf-8"?>
<!-- Generator: Adobe Illustrator 17.0.0, SVG Export Plug-In . SVG Version: 6.00 Build 0)  -->
<!DOCTYPE svg PUBLIC "-//W3C//DTD SVG 1.1//EN" "http://www.w3.org/Graphics/SVG/1.1/DTD/svg11.dtd">
<svg version="1.1" id="Layer_1" xmlns="http://www.w3.org/2000/svg" xmlns:xlink="http://www.w3.org/1999/xlink" x="0px" y="0px"
	 width="16px" height="12px" viewBox="0 0 16 12" enable-background="new 0 0 16 12" xml:space="preserve">
<g>
	<defs>
		<rect id="SVGID_1_" y="0.61" width="16" height="11.19"/>
	</defs>
	<clipPath id="SVGID_2_">
		<use xlink:href="#SVGID_1_"  overflow="visible"/>
	</clipPath>
	<g clip-path="url(#SVGID_2_)">
		<g>
			<defs>
				<rect id="SVGID_3_" y="0.61" width="16" height="11.19"/>
			</defs>
			<clipPath id="SVGID_4_">
				<use xlink:href="#SVGID_3_"  overflow="visible"/>
			</clipPath>
			<g clip-path="url(#SVGID_4_)">
				<g>
					<defs>
						<rect id="SVGID_5_" x="0.007" y="0.61" width="15.986" height="11.19"/>
					</defs>
					<clipPath id="SVGID_6_">
						<use xlink:href="#SVGID_5_"  overflow="visible"/>
					</clipPath>
					<g clip-path="url(#SVGID_6_)">
						<path d="M1.806,2.009c0-0.277,0.082-0.547,0.236-0.777c0.154-0.23,0.372-0.409,0.628-0.515
							c0.256-0.106,0.537-0.134,0.808-0.08C3.749,0.691,3.998,0.824,4.193,1.02c0.196,0.196,0.329,0.445,0.383,0.716
							s0.026,0.553-0.08,0.808C4.391,2.8,4.211,3.018,3.981,3.172c-0.23,0.154-0.5,0.236-0.777,0.236
							c-0.371,0-0.727-0.147-0.989-0.41S1.806,2.38,1.806,2.009z M1.606,5.948c-0.258,0.292-0.4,0.667-0.4,1.057
							s0.142,0.765,0.4,1.057V5.948z M5.213,4.716c-0.692,0.614-1.12,1.47-1.197,2.392C3.94,8.03,4.221,8.945,4.803,9.664v0.537
							c0,0.105-0.02,0.209-0.061,0.306c-0.04,0.097-0.099,0.185-0.173,0.259C4.495,10.841,4.407,10.9,4.31,10.94
							c-0.097,0.04-0.201,0.061-0.306,0.061H2.405c-0.105,0-0.209-0.021-0.306-0.061c-0.097-0.04-0.185-0.099-0.259-0.173
							c-0.074-0.074-0.133-0.162-0.173-0.259c-0.04-0.097-0.061-0.201-0.061-0.306V9.532C1.032,9.26,0.568,8.8,0.289,8.229
							s-0.354-1.22-0.214-1.84c0.14-0.62,0.486-1.174,0.982-1.57c0.496-0.397,1.112-0.613,1.748-0.613h0.799
							C4.18,4.205,4.742,4.383,5.213,4.714V4.716z M11.197,10.201V9.664c0.582-0.72,0.863-1.635,0.787-2.557
							c-0.076-0.922-0.505-1.779-1.197-2.393c0.471-0.331,1.033-0.508,1.609-0.507h0.799c0.635,0,1.252,0.216,1.748,0.613
							s0.842,0.951,0.982,1.57s0.064,1.268-0.214,1.84s-0.743,1.03-1.316,1.303v0.669c0,0.105-0.02,0.209-0.061,0.306
							c-0.04,0.097-0.099,0.185-0.173,0.259c-0.074,0.074-0.162,0.133-0.259,0.173s-0.201,0.061-0.306,0.061h-1.599
							c-0.105,0-0.209-0.021-0.306-0.061s-0.185-0.099-0.259-0.173c-0.074-0.074-0.133-0.162-0.173-0.259
							C11.218,10.41,11.197,10.306,11.197,10.201z M11.397,2.009c0-0.277,0.082-0.547,0.236-0.777
							c0.154-0.23,0.372-0.409,0.628-0.515c0.256-0.106,0.537-0.134,0.808-0.08c0.271,0.054,0.521,0.187,0.716,0.383
							c0.196,0.196,0.329,0.445,0.383,0.716c0.054,0.271,0.026,0.553-0.08,0.808c-0.106,0.256-0.285,0.474-0.515,0.628
							c-0.23,0.154-0.5,0.236-0.777,0.236c-0.371,0-0.727-0.147-0.989-0.41C11.544,2.735,11.397,2.38,11.397,2.009z M14.394,5.948
							v2.116c0.258-0.292,0.4-0.667,0.4-1.057s-0.142-0.765-0.4-1.057V5.948z M8,0.61c0.316,0,0.625,0.094,0.888,0.269
							c0.263,0.176,0.468,0.425,0.589,0.717S9.63,2.21,9.568,2.52C9.506,2.831,9.354,3.115,9.13,3.339
							C8.907,3.562,8.622,3.715,8.312,3.776c-0.31,0.062-0.632,0.03-0.924-0.091C7.096,3.564,6.847,3.36,6.671,3.097
							C6.495,2.834,6.402,2.525,6.402,2.209c0-0.424,0.168-0.831,0.468-1.13C7.169,0.778,7.576,0.61,8,0.61z M6.002,7.404
							c-0.001,0.389,0.141,0.765,0.4,1.057V6.347C6.143,6.639,6.001,7.015,6.002,7.404z M9.599,6.347v2.116
							c0.258-0.292,0.4-0.667,0.4-1.057c0-0.389-0.142-0.765-0.4-1.057V6.347z M11.197,7.404c0,0.529-0.15,1.048-0.433,1.495
							c-0.283,0.447-0.687,0.805-1.165,1.032v1.069c0,0.105-0.02,0.209-0.061,0.306c-0.04,0.097-0.099,0.185-0.173,0.259
							c-0.074,0.074-0.162,0.133-0.259,0.173C9.008,11.78,8.904,11.8,8.799,11.8H7.201c-0.105,0-0.209-0.021-0.306-0.061
							c-0.097-0.04-0.185-0.099-0.259-0.173c-0.074-0.074-0.133-0.162-0.173-0.259c-0.04-0.097-0.061-0.201-0.061-0.306V9.932
							C5.828,9.66,5.363,9.2,5.085,8.629c-0.278-0.571-0.354-1.22-0.214-1.84c0.14-0.62,0.486-1.174,0.982-1.57
							C6.349,4.822,6.965,4.606,7.6,4.606H8.4c0.367,0,0.731,0.072,1.071,0.213c0.339,0.141,0.648,0.347,0.908,0.606
							c0.26,0.26,0.466,0.568,0.606,0.908C11.125,6.673,11.197,7.036,11.197,7.404z"/>
					</g>
				</g>
			</g>
		</g>
	</g>
</g>
</svg>
