<svg width="215" height="36" viewBox="0 0 215 36" fill="none" xmlns="http://www.w3.org/2000/svg">
<g clip-path="url(#clip0_324_1055)">
<path d="M64.858 28.686L59.1548 8.30087C59.1059 8.12377 59.2376 7.95044 59.4221 7.95044H63.179C63.3033 7.95044 63.4162 8.0371 63.4463 8.15768L67.399 23.4748L71.7055 8.15391C71.7394 8.03334 71.8486 7.95421 71.9728 7.95421H75.0823C75.2065 7.95421 75.3157 8.0371 75.3458 8.15391L79.6825 23.4748L83.6314 8.15768C83.6615 8.0371 83.7744 7.95044 83.8987 7.95044H87.6556C87.8401 7.95044 87.9718 8.12377 87.9229 8.30087L82.2197 28.686C82.1858 28.8066 82.0767 28.8895 81.9524 28.8895H77.6798C77.5555 28.8895 77.4501 28.8066 77.4162 28.6898L73.5276 15.0721L69.669 28.6898C69.6351 28.8104 69.5259 28.8895 69.4055 28.8895H65.1328C65.0086 28.8895 64.8994 28.8066 64.8655 28.686H64.858Z" fill="black"/>
<path d="M91.6874 22.9963C92.1956 24.8804 93.5997 25.8073 95.8998 25.8073C97.2738 25.8073 98.3618 25.3589 99.1071 24.4885C99.1937 24.3867 99.3368 24.3641 99.4497 24.432L102.089 25.958C102.232 26.0409 102.269 26.2331 102.171 26.365C100.711 28.3206 98.5914 29.3116 95.8396 29.3116C93.3588 29.3116 91.3862 28.5655 89.8917 27.0696C88.3972 25.5737 87.6519 23.6897 87.6519 21.4175C87.6519 19.1454 88.3972 17.3216 89.8616 15.7956C91.326 14.2695 93.2082 13.5234 95.5384 13.5234C97.7482 13.5234 99.5438 14.2695 100.948 15.7956C102.382 17.3216 103.101 19.1755 103.101 21.4175C103.101 21.783 103.056 22.2352 102.985 22.7627C102.966 22.8984 102.849 23.0039 102.71 23.0039H91.6836L91.6874 22.9963ZM99.2464 20.0045C98.7984 17.9999 97.5712 16.9825 95.5422 16.9825C93.5131 16.9825 92.1052 17.9999 91.6271 20.0045H99.2464Z" fill="black"/>
<path d="M105.014 18.4181C105.014 15.3057 106.03 12.7359 108.093 10.671C110.156 8.57598 112.753 7.53223 115.893 7.53223C117.775 7.53223 119.537 7.98062 121.152 8.87742C122.65 9.69886 123.855 10.8142 124.739 12.2272C124.822 12.3591 124.777 12.5324 124.642 12.6116L121.566 14.3939C121.438 14.4692 121.272 14.4278 121.193 14.2997C120.075 12.4495 118.298 11.5414 115.889 11.5414C113.856 11.5414 112.215 12.1707 110.958 13.4556C109.734 14.7405 109.106 16.4173 109.106 18.4219C109.106 20.4265 109.734 22.0694 110.958 23.3581C112.211 24.643 113.856 25.2722 115.889 25.2722C117.083 25.2722 118.159 25.0047 119.145 24.4659C120.023 23.9986 120.696 23.3581 121.193 22.5442C121.272 22.416 121.438 22.3784 121.566 22.45L124.642 24.236C124.777 24.3151 124.822 24.4885 124.739 24.6204C123.855 26.0296 122.65 27.1487 121.152 27.9702C119.537 28.867 117.775 29.3154 115.893 29.3154C112.757 29.3154 110.156 28.2678 108.093 26.1766C106.03 24.1117 105.014 21.5117 105.014 18.4294V18.4181Z" fill="black"/>
<path d="M128.831 27.0319C127.307 25.5058 126.562 23.6519 126.562 21.4099C126.562 19.168 127.307 17.3404 128.831 15.8182C130.356 14.2921 132.238 13.5159 134.448 13.5159C136.658 13.5159 138.54 14.2921 140.065 15.8182C141.589 17.3442 142.365 19.2282 142.365 21.4099C142.365 23.5916 141.589 25.5058 140.065 27.0319C138.54 28.5579 136.688 29.304 134.448 29.304C132.208 29.304 130.352 28.5579 128.831 27.0319ZM137.347 24.3716C138.122 23.5954 138.514 22.6082 138.514 21.4099C138.514 20.2117 138.126 19.2282 137.347 18.4483C136.571 17.672 135.615 17.2802 134.448 17.2802C133.281 17.2802 132.325 17.6683 131.549 18.4483C130.804 19.2546 130.413 20.2418 130.413 21.4099C130.413 22.578 130.8 23.5653 131.549 24.3716C132.325 25.1479 133.281 25.5397 134.448 25.5397C135.615 25.5397 136.571 25.1516 137.347 24.3716Z" fill="black"/>
<path d="M149.57 28.686L143.867 8.30087C143.818 8.12377 143.95 7.95044 144.134 7.95044H147.891C148.015 7.95044 148.128 8.0371 148.158 8.15768L152.111 23.4748L156.417 8.15391C156.451 8.03334 156.561 7.95421 156.685 7.95421H159.794C159.918 7.95421 160.028 8.0371 160.058 8.15391L164.394 23.4748L168.343 8.15768C168.373 8.0371 168.486 7.95044 168.611 7.95044H172.368C172.552 7.95044 172.684 8.12377 172.635 8.30087L166.932 28.686C166.898 28.8066 166.789 28.8895 166.664 28.8895H162.392C162.267 28.8895 162.162 28.8066 162.128 28.6898L158.239 15.0721L154.381 28.6898C154.347 28.8104 154.238 28.8895 154.117 28.8895H149.845C149.72 28.8895 149.611 28.8066 149.577 28.686H149.57Z" fill="black"/>
<path d="M174.637 27.0319C173.113 25.5058 172.367 23.6519 172.367 21.4099C172.367 19.168 173.113 17.3404 174.637 15.8182C176.162 14.2921 178.044 13.5159 180.254 13.5159C182.463 13.5159 184.346 14.2921 185.87 15.8182C187.395 17.3442 188.17 19.2282 188.17 21.4099C188.17 23.5916 187.395 25.5058 185.87 27.0319C184.346 28.5579 182.494 29.304 180.254 29.304C178.014 29.304 176.158 28.5579 174.637 27.0319ZM183.152 24.3716C183.928 23.5954 184.319 22.6082 184.319 21.4099C184.319 20.2117 183.932 19.2282 183.152 18.4483C182.373 17.6683 181.421 17.2802 180.254 17.2802C179.087 17.2802 178.131 17.6683 177.355 18.4483C176.61 19.2546 176.218 20.2418 176.218 21.4099C176.218 22.578 176.606 23.5653 177.355 24.3716C178.131 25.1479 179.087 25.5397 180.254 25.5397C181.421 25.5397 182.377 25.1516 183.152 24.3716Z" fill="black"/>
<path d="M194.747 16.504C195.432 14.6728 196.859 13.7157 199.001 13.6365C199.159 13.629 199.291 13.7571 199.291 13.9116V17.6345C199.291 17.7927 199.155 17.9208 198.997 17.9095C197.943 17.8342 196.972 18.0829 196.125 18.6556C195.199 19.2849 194.751 20.3022 194.751 21.7379V28.6108C194.751 28.7615 194.627 28.8859 194.476 28.8859H191.175C191.024 28.8859 190.9 28.7615 190.9 28.6108V14.2093C190.9 14.0586 191.024 13.9342 191.175 13.9342H194.476C194.627 13.9342 194.751 14.0586 194.751 14.2093V16.504H194.747Z" fill="black"/>
<path d="M214.725 28.8858H210.957C210.874 28.8858 210.795 28.8481 210.743 28.784L205.386 22.0995V28.6145C205.386 28.7652 205.261 28.8895 205.111 28.8895H201.809C201.659 28.8895 201.535 28.7652 201.535 28.6145V8.22551C201.535 8.07479 201.659 7.95044 201.809 7.95044H205.111C205.261 7.95044 205.386 8.07479 205.386 8.22551V20.5131L210.441 14.0396C210.494 13.9718 210.573 13.9341 210.66 13.9341H214.548C214.782 13.9341 214.91 14.2054 214.763 14.3863L209.124 21.3233L214.94 28.4411C215.087 28.622 214.959 28.8933 214.725 28.8933V28.8858Z" fill="black"/>
<path fill-rule="evenodd" clip-rule="evenodd" d="M15.235 9.98535C17.983 9.98535 20.2229 7.74335 20.2229 4.99267C20.2229 2.24199 17.9793 0 15.235 0C12.4907 0 10.2471 2.24199 10.2471 4.99267C10.2471 7.74335 12.4869 9.98535 15.235 9.98535Z" fill="url(#paint0_linear_324_1055)"/>
<path fill-rule="evenodd" clip-rule="evenodd" d="M36.0372 9.98535C38.7853 9.98535 41.0252 7.74335 41.0252 4.99267C41.0252 2.24199 38.7853 0 36.0372 0C33.2892 0 31.0493 2.24199 31.0493 4.99267C31.0493 7.74335 33.2892 9.98535 36.0372 9.98535Z" fill="url(#paint1_linear_324_1055)"/>
<path fill-rule="evenodd" clip-rule="evenodd" d="M0.448105 13.9231C-0.568301 11.9486 0.207179 9.52573 2.17599 8.51213C4.14858 7.49475 6.56913 8.27097 7.58177 10.2417L14.3653 23.3809L21.6119 10.0985C22.6622 8.14286 25.0978 7.41186 27.0516 8.46314C29.0054 9.51443 29.7357 11.9524 28.6854 13.908L17.8249 33.8862C17.456 34.5758 16.8762 35.1674 16.1271 35.5555C14.1545 36.5728 11.734 35.7966 10.7213 33.8259L0.448105 13.9231Z" fill="url(#paint2_linear_324_1055)"/>
<path fill-rule="evenodd" clip-rule="evenodd" d="M43.2499 10.1776C44.3002 8.22196 46.7358 7.49096 48.6895 8.54224C50.6433 9.59353 51.3736 12.0315 50.3233 13.9871L39.5758 33.8862C38.5255 35.8418 36.0899 36.5728 34.1361 35.5215C33.402 35.1259 32.8411 34.5343 32.4797 33.8485L21.751 13.9871C20.7007 12.0315 21.431 9.59353 23.3848 8.54224C25.3386 7.49096 27.7742 8.22196 28.8244 10.1776L36.0334 23.5278L43.2424 10.1776H43.2499Z" fill="url(#paint3_linear_324_1055)"/>
</g>
<defs>
<linearGradient id="paint0_linear_324_1055" x1="15.235" y1="10.2039" x2="15.235" y2="0.535064" gradientUnits="userSpaceOnUse">
<stop stop-color="#0BFDFF"/>
<stop offset="0.12" stop-color="#0EEEFE"/>
<stop offset="0.34" stop-color="#18C6FD"/>
<stop offset="0.65" stop-color="#2887FB"/>
<stop offset="1" stop-color="#3C39FA"/>
</linearGradient>
<linearGradient id="paint1_linear_324_1055" x1="36.0372" y1="-0.0753611" x2="36.0372" y2="10.0343" gradientUnits="userSpaceOnUse">
<stop stop-color="#0BFDFF"/>
<stop offset="0.12" stop-color="#0EEEFE"/>
<stop offset="0.34" stop-color="#18C6FD"/>
<stop offset="0.65" stop-color="#2887FB"/>
<stop offset="1" stop-color="#0A65DB"/>
</linearGradient>
<linearGradient id="paint2_linear_324_1055" x1="5.60542" y1="33.0158" x2="16.6229" y2="7.32902" gradientUnits="userSpaceOnUse">
<stop stop-color="#0BFDFF"/>
<stop offset="0.12" stop-color="#0EEEFE"/>
<stop offset="0.34" stop-color="#18C6FD"/>
<stop offset="0.65" stop-color="#2887FB"/>
<stop offset="1" stop-color="#3C39FA"/>
</linearGradient>
<linearGradient id="paint3_linear_324_1055" x1="32.4609" y1="4.60463" x2="44.9482" y2="30.6552" gradientUnits="userSpaceOnUse">
<stop stop-color="#0BFDFF"/>
<stop offset="0.12" stop-color="#0EEEFE"/>
<stop offset="0.34" stop-color="#18C6FD"/>
<stop offset="0.65" stop-color="#2887FB"/>
<stop offset="1" stop-color="#3C39FA"/>
</linearGradient>
<clipPath id="clip0_324_1055">
<rect width="215" height="36" fill="white"/>
</clipPath>
</defs>
</svg>
